<mxfile host="app.diagrams.net" modified="2023-09-29T17:57:22.712Z" agent="Mozilla/5.0 (X11; Linux x86_64; rv:109.0) Gecko/20100101 Firefox/118.0" etag="Z_gtkQ3w5uosPQ-iASFu" version="22.0.0" type="device">
  <diagram name="Page-1" id="TWxdv320Yzf0mHkWQ7Hm">
    <mxGraphModel dx="989" dy="567" grid="1" gridSize="10" guides="1" tooltips="1" connect="1" arrows="1" fold="1" page="1" pageScale="1" pageWidth="850" pageHeight="1100" math="0" shadow="0">
      <root>
        <mxCell id="0" />
        <mxCell id="1" parent="0" />
        <mxCell id="ezJU_lkSgV3AJdmqNHaO-2" value="" style="shape=trapezoid;perimeter=trapezoidPerimeter;whiteSpace=wrap;html=1;fixedSize=1;rotation=-180;rounded=1;fillColor=#EFF4FC;strokeColor=#000000;strokeWidth=2;" vertex="1" parent="1">
          <mxGeometry x="280" y="400" width="300" height="120" as="geometry" />
        </mxCell>
        <mxCell id="ezJU_lkSgV3AJdmqNHaO-3" value="&lt;h5&gt;&lt;font style=&quot;font-size: 11px;&quot;&gt;Mister&lt;/font&gt;&lt;/h5&gt;" style="shape=trapezoid;perimeter=trapezoidPerimeter;whiteSpace=wrap;html=1;fixedSize=1;strokeWidth=2;fillColor=#0050ef;fontColor=#ffffff;strokeColor=#001DBC;" vertex="1" parent="1">
          <mxGeometry x="320" y="478" width="70" height="40" as="geometry" />
        </mxCell>
        <mxCell id="ezJU_lkSgV3AJdmqNHaO-4" value="&lt;h5&gt;&lt;font style=&quot;font-size: 11px;&quot;&gt;Mister&lt;/font&gt;&lt;/h5&gt;" style="shape=trapezoid;perimeter=trapezoidPerimeter;whiteSpace=wrap;html=1;fixedSize=1;fillColor=#0050ef;fontColor=#ffffff;strokeColor=#001DBC;strokeWidth=2;" vertex="1" parent="1">
          <mxGeometry x="470" y="478" width="70" height="40" as="geometry" />
        </mxCell>
        <mxCell id="ezJU_lkSgV3AJdmqNHaO-5" value="" style="shape=image;html=1;verticalAlign=top;verticalLabelPosition=bottom;labelBackgroundColor=#ffffff;imageAspect=0;aspect=fixed;image=https://cdn1.iconfinder.com/data/icons/icons-for-a-site-1/64/advantage_eco_friendly-128.png;clipPath=inset(0% 1.56% 23.44% 1.56%);" vertex="1" parent="1">
          <mxGeometry x="290" y="344.68" width="70" height="55.32258064516129" as="geometry" />
        </mxCell>
        <mxCell id="ezJU_lkSgV3AJdmqNHaO-6" value="" style="shape=image;html=1;verticalAlign=top;verticalLabelPosition=bottom;labelBackgroundColor=#ffffff;imageAspect=0;aspect=fixed;image=https://cdn1.iconfinder.com/data/icons/icons-for-a-site-1/64/advantage_eco_friendly-128.png;clipPath=inset(0% 1.56% 23.44% 1.56%);" vertex="1" parent="1">
          <mxGeometry x="395" y="344.68" width="70" height="55.32258064516129" as="geometry" />
        </mxCell>
        <mxCell id="ezJU_lkSgV3AJdmqNHaO-7" value="" style="shape=image;html=1;verticalAlign=top;verticalLabelPosition=bottom;labelBackgroundColor=#ffffff;imageAspect=0;aspect=fixed;image=https://cdn1.iconfinder.com/data/icons/icons-for-a-site-1/64/advantage_eco_friendly-128.png;clipPath=inset(0% 1.56% 23.44% 1.56%);" vertex="1" parent="1">
          <mxGeometry x="500" y="344.68" width="70" height="55.32258064516129" as="geometry" />
        </mxCell>
        <mxCell id="ezJU_lkSgV3AJdmqNHaO-9" value="" style="shape=trapezoid;perimeter=trapezoidPerimeter;whiteSpace=wrap;html=1;fixedSize=1;fillColor=#ffcd28;strokeColor=#d79b00;gradientColor=#ffa500;gradientDirection=north;strokeWidth=0;" vertex="1" parent="1">
          <mxGeometry x="298.75" y="240" width="52.5" height="20" as="geometry" />
        </mxCell>
        <mxCell id="ezJU_lkSgV3AJdmqNHaO-10" value="" style="shape=trapezoid;perimeter=trapezoidPerimeter;whiteSpace=wrap;html=1;fixedSize=1;fillColor=#ffcd28;strokeColor=#d79b00;gradientColor=#ffa500;gradientDirection=north;strokeWidth=0;" vertex="1" parent="1">
          <mxGeometry x="403.75" y="240" width="52.5" height="20" as="geometry" />
        </mxCell>
        <mxCell id="ezJU_lkSgV3AJdmqNHaO-11" value="" style="shape=trapezoid;perimeter=trapezoidPerimeter;whiteSpace=wrap;html=1;fixedSize=1;fillColor=#ffcd28;strokeColor=#d79b00;gradientColor=#ffa500;gradientDirection=north;strokeWidth=0;" vertex="1" parent="1">
          <mxGeometry x="508.75" y="240" width="52.5" height="20" as="geometry" />
        </mxCell>
        <mxCell id="ezJU_lkSgV3AJdmqNHaO-12" value="" style="rounded=1;whiteSpace=wrap;html=1;strokeWidth=2;" vertex="1" parent="1">
          <mxGeometry x="280" y="230" width="300" height="10" as="geometry" />
        </mxCell>
        <mxCell id="ezJU_lkSgV3AJdmqNHaO-13" value="&lt;h2&gt;Grow lights&lt;/h2&gt;" style="text;html=1;strokeColor=none;fillColor=none;align=center;verticalAlign=middle;whiteSpace=wrap;rounded=0;strokeWidth=2;" vertex="1" parent="1">
          <mxGeometry x="280" y="200" width="120" height="30" as="geometry" />
        </mxCell>
        <mxCell id="ezJU_lkSgV3AJdmqNHaO-15" style="edgeStyle=orthogonalEdgeStyle;rounded=1;orthogonalLoop=1;jettySize=auto;html=1;exitX=1;exitY=0.25;exitDx=0;exitDy=0;entryX=0.75;entryY=0;entryDx=0;entryDy=0;strokeWidth=2;" edge="1" parent="1" source="ezJU_lkSgV3AJdmqNHaO-14" target="ezJU_lkSgV3AJdmqNHaO-2">
          <mxGeometry relative="1" as="geometry" />
        </mxCell>
        <mxCell id="ezJU_lkSgV3AJdmqNHaO-17" style="edgeStyle=orthogonalEdgeStyle;rounded=1;orthogonalLoop=1;jettySize=auto;html=1;exitX=1;exitY=0.5;exitDx=0;exitDy=0;entryX=0.25;entryY=0;entryDx=0;entryDy=0;strokeWidth=2;" edge="1" parent="1" source="ezJU_lkSgV3AJdmqNHaO-14" target="ezJU_lkSgV3AJdmqNHaO-2">
          <mxGeometry relative="1" as="geometry" />
        </mxCell>
        <mxCell id="ezJU_lkSgV3AJdmqNHaO-19" style="edgeStyle=orthogonalEdgeStyle;rounded=1;orthogonalLoop=1;jettySize=auto;html=1;exitX=1;exitY=0.75;exitDx=0;exitDy=0;entryX=1;entryY=0.5;entryDx=0;entryDy=0;strokeWidth=2;" edge="1" parent="1" source="ezJU_lkSgV3AJdmqNHaO-14" target="ezJU_lkSgV3AJdmqNHaO-12">
          <mxGeometry relative="1" as="geometry">
            <Array as="points">
              <mxPoint x="610" y="605" />
              <mxPoint x="610" y="235" />
            </Array>
          </mxGeometry>
        </mxCell>
        <mxCell id="ezJU_lkSgV3AJdmqNHaO-14" value="&lt;h2&gt;Controller&lt;/h2&gt;" style="rounded=1;whiteSpace=wrap;html=1;fillColor=#b1ddf0;strokeColor=#10739e;strokeWidth=2;" vertex="1" parent="1">
          <mxGeometry x="120" y="560" width="120" height="60" as="geometry" />
        </mxCell>
        <mxCell id="ezJU_lkSgV3AJdmqNHaO-25" style="edgeStyle=orthogonalEdgeStyle;rounded=1;orthogonalLoop=1;jettySize=auto;html=1;entryX=0;entryY=0.25;entryDx=0;entryDy=0;strokeWidth=2;" edge="1" parent="1" source="ezJU_lkSgV3AJdmqNHaO-20" target="ezJU_lkSgV3AJdmqNHaO-14">
          <mxGeometry relative="1" as="geometry">
            <Array as="points">
              <mxPoint x="90" y="451" />
              <mxPoint x="90" y="575" />
            </Array>
          </mxGeometry>
        </mxCell>
        <mxCell id="ezJU_lkSgV3AJdmqNHaO-20" value="&lt;h4&gt;Temp sensor&lt;/h4&gt;" style="rounded=1;whiteSpace=wrap;html=1;strokeWidth=2;" vertex="1" parent="1">
          <mxGeometry x="320" y="440" width="120" height="22" as="geometry" />
        </mxCell>
        <mxCell id="ezJU_lkSgV3AJdmqNHaO-28" style="edgeStyle=orthogonalEdgeStyle;rounded=1;orthogonalLoop=1;jettySize=auto;html=1;entryX=0;entryY=0.75;entryDx=0;entryDy=0;strokeWidth=2;" edge="1" parent="1" source="ezJU_lkSgV3AJdmqNHaO-22" target="ezJU_lkSgV3AJdmqNHaO-14">
          <mxGeometry relative="1" as="geometry">
            <Array as="points">
              <mxPoint x="70" y="419" />
              <mxPoint x="70" y="605" />
            </Array>
          </mxGeometry>
        </mxCell>
        <mxCell id="ezJU_lkSgV3AJdmqNHaO-22" value="" style="ellipse;whiteSpace=wrap;html=1;aspect=fixed;fillColor=#a20025;fontColor=#ffffff;strokeColor=#6F0000;strokeWidth=2;" vertex="1" parent="1">
          <mxGeometry x="159" y="398" width="42" height="42" as="geometry" />
        </mxCell>
        <mxCell id="ezJU_lkSgV3AJdmqNHaO-23" value="" style="ellipse;whiteSpace=wrap;html=1;aspect=fixed;strokeWidth=0;" vertex="1" parent="1">
          <mxGeometry x="161.5" y="400" width="37" height="37" as="geometry" />
        </mxCell>
        <mxCell id="ezJU_lkSgV3AJdmqNHaO-24" value="&lt;h4&gt;LDR&lt;/h4&gt;" style="ellipse;whiteSpace=wrap;html=1;aspect=fixed;fillColor=#a20025;fontColor=#ffffff;strokeColor=none;strokeWidth=2;" vertex="1" parent="1">
          <mxGeometry x="164" y="402.5" width="32" height="32" as="geometry" />
        </mxCell>
      </root>
    </mxGraphModel>
  </diagram>
</mxfile>
